<svg xmlns="http://www.w3.org/2000/svg" xmlns:xlink="http://www.w3.org/1999/xlink" width="1000" zoomAndPan="magnify" viewBox="0 0 750 374.999991" height="500" preserveAspectRatio="xMidYMid meet" version="1.0"><defs><g/><clipPath id="95437a846d"><path d="M 660.019531 240.464844 L 730.460938 240.464844 L 730.460938 310.902344 L 660.019531 310.902344 Z M 660.019531 240.464844 " clip-rule="nonzero"/></clipPath><clipPath id="b724eb9d20"><path d="M 695.238281 240.464844 C 675.789062 240.464844 660.019531 256.230469 660.019531 275.683594 C 660.019531 295.136719 675.789062 310.902344 695.238281 310.902344 C 714.691406 310.902344 730.460938 295.136719 730.460938 275.683594 C 730.460938 256.230469 714.691406 240.464844 695.238281 240.464844 Z M 695.238281 240.464844 " clip-rule="nonzero"/></clipPath><clipPath id="60f893bf36"><path d="M 0 9.9375 L 125.910156 9.9375 L 125.910156 135.847656 L 0 135.847656 Z M 0 9.9375 " clip-rule="nonzero"/></clipPath><clipPath id="6eee11b5e8"><path d="M 62.953125 9.9375 C 28.1875 9.9375 0 38.121094 0 72.890625 C 0 107.660156 28.1875 135.847656 62.953125 135.847656 C 97.722656 135.847656 125.910156 107.660156 125.910156 72.890625 C 125.910156 38.121094 97.722656 9.9375 62.953125 9.9375 Z M 62.953125 9.9375 " clip-rule="nonzero"/></clipPath><clipPath id="480d582be8"><path d="M 272.160156 253.5625 L 301.914062 253.5625 L 301.914062 283.316406 L 272.160156 283.316406 Z M 272.160156 253.5625 " clip-rule="nonzero"/></clipPath><clipPath id="4fe3533196"><path d="M 287.035156 253.5625 C 278.820312 253.5625 272.160156 260.222656 272.160156 268.4375 C 272.160156 276.65625 278.820312 283.316406 287.035156 283.316406 C 295.253906 283.316406 301.914062 276.65625 301.914062 268.4375 C 301.914062 260.222656 295.253906 253.5625 287.035156 253.5625 Z M 287.035156 253.5625 " clip-rule="nonzero"/></clipPath></defs><rect x="-75" width="900" fill="#ffffff" y="-37.499999" height="449.999989" fill-opacity="1"/><rect x="-75" width="900" fill="#ffffff" y="-37.499999" height="449.999989" fill-opacity="1"/><g fill="#000000" fill-opacity="1"><g transform="translate(49.415462, 275.858427)"><g><path d="M 60.890625 -125.703125 L 60.890625 0 L 14.734375 0 L 14.734375 -202.53125 L 60.890625 -202.53125 L 141.40625 -76.84375 L 141.90625 -76.84375 L 141.90625 -202.53125 L 188.046875 -202.53125 L 188.046875 0 L 141.90625 0 L 61.375 -125.703125 Z M 60.890625 -125.703125 "/></g></g></g><g fill="#000000" fill-opacity="1"><g transform="translate(149.891957, 275.858427)"><g><path d="M 1.96875 -162.03125 L 1.96875 -202.53125 L 144.359375 -202.53125 L 144.359375 -162.03125 L 96.234375 -162.03125 L 96.234375 0 L 50.078125 0 L 50.078125 -162.03125 Z M 1.96875 -162.03125 "/></g></g></g><g clip-path="url(#95437a846d)"><g clip-path="url(#b724eb9d20)"><path fill="#ffffff" d="M 660.019531 240.464844 L 730.460938 240.464844 L 730.460938 310.902344 L 660.019531 310.902344 Z M 660.019531 240.464844 " fill-opacity="1" fill-rule="nonzero"/></g></g><g clip-path="url(#60f893bf36)"><g clip-path="url(#6eee11b5e8)"><path fill="#ffffff" d="M 0 9.9375 L 125.910156 9.9375 L 125.910156 135.847656 L 0 135.847656 Z M 0 9.9375 " fill-opacity="1" fill-rule="nonzero"/></g></g><g clip-path="url(#480d582be8)"><g clip-path="url(#4fe3533196)"><path fill="#000000" d="M 272.160156 253.5625 L 301.914062 253.5625 L 301.914062 283.316406 L 272.160156 283.316406 Z M 272.160156 253.5625 " fill-opacity="1" fill-rule="nonzero"/></g></g><g fill="#000000" fill-opacity="1"><g transform="translate(297.667211, 216.703285)"><g><path d="M 3.78125 -56.984375 L 39.390625 -56.984375 L 39.390625 -45.890625 L 16 -45.890625 L 16 -35.609375 L 36.578125 -35.609375 L 36.578125 -24.515625 L 16 -24.515625 L 16 0 L 3.78125 0 Z M 3.78125 -56.984375 "/></g></g></g><g fill="#000000" fill-opacity="1"><g transform="translate(349.107647, 216.703285)"><g><path d="M 38.828125 -56.984375 L 62.609375 0 L 49.4375 0 L 44.28125 -12.21875 L 20.09375 -12.21875 L 15.03125 0 L 1.765625 0 L 25.5625 -56.984375 Z M 39.703125 -23.3125 L 32.234375 -41.234375 L 24.75 -23.3125 Z M 39.703125 -23.3125 "/></g></g></g><g fill="#000000" fill-opacity="1"><g transform="translate(424.499941, 216.703285)"><g><path d="M 40.03125 -29.34375 C 42.28125 -28 43.992188 -26.28125 45.171875 -24.1875 C 46.347656 -22.101562 46.9375 -19.691406 46.9375 -16.953125 C 46.9375 -14.378906 46.316406 -11.984375 45.078125 -9.765625 C 43.847656 -7.546875 42.109375 -5.578125 39.859375 -3.859375 C 37.828125 -2.304688 35.507812 -1.113281 32.90625 -0.28125 C 30.3125 0.550781 27.566406 0.992188 24.671875 1.046875 C 21.773438 1.046875 19.015625 0.644531 16.390625 -0.15625 C 13.765625 -0.957031 11.4375 -2.164062 9.40625 -3.78125 C 6.351562 -6.082031 4.265625 -8.867188 3.140625 -12.140625 L 14.390625 -17.359375 C 14.390625 -16.828125 14.578125 -16.15625 14.953125 -15.34375 C 15.328125 -14.539062 15.914062 -13.765625 16.71875 -13.015625 C 17.519531 -12.265625 18.5625 -11.617188 19.84375 -11.078125 C 21.132812 -10.546875 22.71875 -10.28125 24.59375 -10.28125 C 26.09375 -10.28125 27.414062 -10.46875 28.5625 -10.84375 C 29.71875 -11.21875 30.679688 -11.6875 31.453125 -12.25 C 32.234375 -12.8125 32.828125 -13.453125 33.234375 -14.171875 C 33.640625 -14.898438 33.84375 -15.640625 33.84375 -16.390625 C 33.84375 -17.253906 33.5625 -18.0625 33 -18.8125 C 32.4375 -19.5625 31.5625 -20.148438 30.375 -20.578125 C 28.238281 -21.328125 25.976562 -21.957031 23.59375 -22.46875 C 21.207031 -22.976562 18.890625 -23.617188 16.640625 -24.390625 C 14.390625 -25.171875 12.296875 -26.203125 10.359375 -27.484375 C 8.429688 -28.773438 6.90625 -30.570312 5.78125 -32.875 C 4.769531 -34.90625 4.265625 -37.078125 4.265625 -39.390625 C 4.265625 -41.953125 4.863281 -44.4375 6.0625 -46.84375 C 7.269531 -49.257812 8.921875 -51.300781 11.015625 -52.96875 C 12.992188 -54.519531 15.210938 -55.710938 17.671875 -56.546875 C 20.140625 -57.378906 22.742188 -57.796875 25.484375 -57.796875 C 28.210938 -57.796875 30.820312 -57.390625 33.3125 -56.578125 C 35.800781 -55.773438 38.039062 -54.597656 40.03125 -53.046875 C 41.957031 -51.597656 43.484375 -49.910156 44.609375 -47.984375 L 35.453125 -41.71875 C 34.316406 -43.269531 32.90625 -44.515625 31.21875 -45.453125 C 29.53125 -46.390625 27.644531 -46.859375 25.5625 -46.859375 C 22.664062 -46.859375 20.425781 -46.210938 18.84375 -44.921875 C 17.269531 -43.640625 16.484375 -41.953125 16.484375 -39.859375 C 16.484375 -38.898438 16.921875 -38.046875 17.796875 -37.296875 C 18.679688 -36.546875 19.832031 -35.875 21.25 -35.28125 C 22.675781 -34.695312 24.269531 -34.175781 26.03125 -33.71875 C 27.800781 -33.257812 29.554688 -32.800781 31.296875 -32.34375 C 33.046875 -31.894531 34.695312 -31.425781 36.25 -30.9375 C 37.800781 -30.457031 39.0625 -29.925781 40.03125 -29.34375 Z M 40.03125 -29.34375 "/></g></g></g><g fill="#000000" fill-opacity="1"><g transform="translate(485.022781, 216.703285)"><g><path d="M 42.03125 -56.984375 L 54.25 -56.984375 L 54.25 0 L 42.03125 0 L 42.03125 -24.515625 L 15.921875 -24.515625 L 15.921875 0 L 3.78125 0 L 3.78125 -56.984375 L 15.921875 -56.984375 L 15.921875 -35.609375 L 42.03125 -35.609375 Z M 42.03125 -56.984375 "/></g></g></g><g fill="#000000" fill-opacity="1"><g transform="translate(554.06541, 216.703285)"><g><path d="M 24.515625 -56.984375 L 24.515625 -46.703125 L 20.25 -46.703125 L 20.25 -10.203125 L 24.515625 -10.203125 L 24.515625 0 L 3.78125 0 L 3.78125 -10.203125 L 8.03125 -10.203125 L 8.03125 -46.703125 L 3.78125 -46.703125 L 3.78125 -56.984375 Z M 24.515625 -56.984375 "/></g></g></g><g fill="#000000" fill-opacity="1"><g transform="translate(593.288778, 216.703285)"><g><path d="M 30.703125 -57.796875 C 34.554688 -57.796875 38.195312 -57.015625 41.625 -55.453125 C 45.0625 -53.898438 48.050781 -51.785156 50.59375 -49.109375 C 53.132812 -46.429688 55.140625 -43.320312 56.609375 -39.78125 C 58.085938 -36.25 58.828125 -32.472656 58.828125 -28.453125 C 58.828125 -24.484375 58.085938 -20.703125 56.609375 -17.109375 C 55.140625 -13.523438 53.132812 -10.394531 50.59375 -7.71875 C 48.050781 -5.039062 45.0625 -2.910156 41.625 -1.328125 C 38.195312 0.253906 34.554688 1.046875 30.703125 1.046875 C 26.847656 1.046875 23.203125 0.253906 19.765625 -1.328125 C 16.335938 -2.910156 13.363281 -5.039062 10.84375 -7.71875 C 8.332031 -10.394531 6.335938 -13.523438 4.859375 -17.109375 C 3.390625 -20.703125 2.65625 -24.484375 2.65625 -28.453125 C 2.65625 -32.472656 3.390625 -36.25 4.859375 -39.78125 C 6.335938 -43.320312 8.332031 -46.429688 10.84375 -49.109375 C 13.363281 -51.785156 16.335938 -53.898438 19.765625 -55.453125 C 23.203125 -57.015625 26.847656 -57.796875 30.703125 -57.796875 Z M 30.703125 -11.09375 C 32.898438 -11.09375 34.960938 -11.546875 36.890625 -12.453125 C 38.816406 -13.367188 40.503906 -14.613281 41.953125 -16.1875 C 43.398438 -17.769531 44.539062 -19.601562 45.375 -21.6875 C 46.207031 -23.78125 46.625 -26.035156 46.625 -28.453125 C 46.625 -30.859375 46.207031 -33.117188 45.375 -35.234375 C 44.539062 -37.359375 43.398438 -39.207031 41.953125 -40.78125 C 40.503906 -42.363281 38.816406 -43.609375 36.890625 -44.515625 C 34.960938 -45.429688 32.898438 -45.890625 30.703125 -45.890625 C 28.503906 -45.890625 26.441406 -45.429688 24.515625 -44.515625 C 22.585938 -43.609375 20.898438 -42.363281 19.453125 -40.78125 C 18.003906 -39.207031 16.863281 -37.359375 16.03125 -35.234375 C 15.195312 -33.117188 14.78125 -30.859375 14.78125 -28.453125 C 14.78125 -26.035156 15.195312 -23.78125 16.03125 -21.6875 C 16.863281 -19.601562 18.003906 -17.769531 19.453125 -16.1875 C 20.898438 -14.613281 22.585938 -13.367188 24.515625 -12.453125 C 26.441406 -11.546875 28.503906 -11.09375 30.703125 -11.09375 Z M 30.703125 -11.09375 "/></g></g></g><g fill="#000000" fill-opacity="1"><g transform="translate(665.787557, 216.703285)"><g><path d="M 42.765625 -56.984375 L 54.890625 -56.984375 L 54.890625 0 L 43.328125 0 L 15.921875 -37.21875 L 15.921875 0 L 3.78125 0 L 3.78125 -56.984375 L 15.1875 -56.984375 L 42.765625 -19.53125 Z M 42.765625 -56.984375 "/></g></g></g><g fill="#373737" fill-opacity="1"><g transform="translate(413.000292, 278.183724)"><g><path d="M 18.46875 -6.953125 C 18.46875 -5.898438 18.253906 -4.925781 17.828125 -4.03125 C 17.410156 -3.132812 16.796875 -2.347656 15.984375 -1.671875 C 14.378906 -0.328125 12.320312 0.34375 9.8125 0.34375 C 7.851562 0.34375 6.082031 -0.0546875 4.5 -0.859375 C 2.914062 -1.660156 1.753906 -2.734375 1.015625 -4.078125 L 4.125 -5.6875 C 4.582031 -4.851562 5.316406 -4.207031 6.328125 -3.75 C 7.347656 -3.300781 8.507812 -3.078125 9.8125 -3.078125 C 13.1875 -3.078125 14.875 -4.367188 14.875 -6.953125 C 14.875 -7.429688 14.785156 -7.84375 14.609375 -8.1875 C 14.429688 -8.539062 14.171875 -8.875 13.828125 -9.1875 C 12.984375 -9.882812 11.476562 -10.507812 9.3125 -11.0625 C 8.007812 -11.382812 6.90625 -11.742188 6 -12.140625 C 5.09375 -12.535156 4.335938 -13.003906 3.734375 -13.546875 C 2.265625 -14.734375 1.53125 -16.300781 1.53125 -18.25 C 1.53125 -19.226562 1.722656 -20.140625 2.109375 -20.984375 C 2.492188 -21.835938 3.035156 -22.582031 3.734375 -23.21875 C 4.453125 -23.84375 5.296875 -24.3125 6.265625 -24.625 C 7.234375 -24.9375 8.296875 -25.09375 9.453125 -25.09375 C 11.148438 -25.09375 12.710938 -24.765625 14.140625 -24.109375 C 15.578125 -23.460938 16.671875 -22.546875 17.421875 -21.359375 L 14.59375 -19.625 C 13.914062 -20.4375 13.132812 -21.007812 12.25 -21.34375 C 11.363281 -21.675781 10.429688 -21.84375 9.453125 -21.84375 C 8.753906 -21.84375 8.113281 -21.726562 7.53125 -21.5 C 6.957031 -21.269531 6.472656 -20.992188 6.078125 -20.671875 C 5.742188 -20.390625 5.5 -20.046875 5.34375 -19.640625 C 5.195312 -19.234375 5.125 -18.796875 5.125 -18.328125 C 5.125 -18.023438 5.171875 -17.710938 5.265625 -17.390625 C 5.359375 -17.078125 5.578125 -16.753906 5.921875 -16.421875 C 6.273438 -16.085938 6.789062 -15.757812 7.46875 -15.4375 C 8.144531 -15.125 9.066406 -14.816406 10.234375 -14.515625 C 11.628906 -14.171875 12.800781 -13.796875 13.75 -13.390625 C 14.707031 -12.984375 15.507812 -12.5 16.15625 -11.9375 C 17.695312 -10.675781 18.46875 -9.015625 18.46875 -6.953125 Z M 18.46875 -6.953125 "/></g></g></g><g fill="#373737" fill-opacity="1"><g transform="translate(452.263317, 278.183724)"><g><path d="M 6.875 -21.46875 L 0.171875 -21.46875 L 0.171875 -24.75 L 17.25 -24.75 L 17.25 -21.46875 L 10.5 -21.46875 L 10.5 0 L 6.875 0 Z M 6.875 -21.46875 "/></g></g></g><g fill="#373737" fill-opacity="1"><g transform="translate(489.502683, 278.183724)"><g><path d="M 13.4375 -25.09375 C 15.113281 -25.09375 16.695312 -24.753906 18.1875 -24.078125 C 19.675781 -23.410156 20.972656 -22.5 22.078125 -21.34375 C 23.179688 -20.195312 24.054688 -18.847656 24.703125 -17.296875 C 25.359375 -15.742188 25.6875 -14.109375 25.6875 -12.390625 C 25.6875 -10.648438 25.359375 -9.007812 24.703125 -7.46875 C 24.054688 -5.9375 23.175781 -4.59375 22.0625 -3.4375 C 20.945312 -2.28125 19.644531 -1.363281 18.15625 -0.6875 C 16.664062 -0.0195312 15.082031 0.3125 13.40625 0.3125 C 11.726562 0.3125 10.144531 -0.0195312 8.65625 -0.6875 C 7.164062 -1.363281 5.867188 -2.28125 4.765625 -3.4375 C 3.660156 -4.59375 2.785156 -5.9375 2.140625 -7.46875 C 1.503906 -9.007812 1.1875 -10.648438 1.1875 -12.390625 C 1.1875 -14.109375 1.503906 -15.742188 2.140625 -17.296875 C 2.785156 -18.847656 3.664062 -20.195312 4.78125 -21.34375 C 5.894531 -22.5 7.195312 -23.410156 8.6875 -24.078125 C 10.175781 -24.753906 11.757812 -25.09375 13.4375 -25.09375 Z M 13.4375 -3.140625 C 14.625 -3.140625 15.734375 -3.378906 16.765625 -3.859375 C 17.804688 -4.335938 18.707031 -4.992188 19.46875 -5.828125 C 20.238281 -6.671875 20.84375 -7.65625 21.28125 -8.78125 C 21.726562 -9.90625 21.953125 -11.109375 21.953125 -12.390625 C 21.953125 -13.671875 21.726562 -14.867188 21.28125 -15.984375 C 20.84375 -17.097656 20.238281 -18.070312 19.46875 -18.90625 C 18.707031 -19.75 17.804688 -20.410156 16.765625 -20.890625 C 15.734375 -21.367188 14.625 -21.609375 13.4375 -21.609375 C 12.25 -21.609375 11.132812 -21.367188 10.09375 -20.890625 C 9.0625 -20.410156 8.160156 -19.75 7.390625 -18.90625 C 6.628906 -18.070312 6.019531 -17.097656 5.5625 -15.984375 C 5.113281 -14.867188 4.890625 -13.671875 4.890625 -12.390625 C 4.890625 -11.109375 5.113281 -9.90625 5.5625 -8.78125 C 6.019531 -7.65625 6.628906 -6.671875 7.390625 -5.828125 C 8.160156 -4.992188 9.0625 -4.335938 10.09375 -3.859375 C 11.132812 -3.378906 12.25 -3.140625 13.4375 -3.140625 Z M 13.4375 -3.140625 "/></g></g></g><g fill="#373737" fill-opacity="1"><g transform="translate(535.290287, 278.183724)"><g><path d="M 22.375 0 L 17.796875 0 L 10.015625 -10.6875 L 5.6875 -10.6875 L 5.6875 0 L 2.03125 0 L 2.03125 -24.75 L 12.078125 -24.75 C 13.054688 -24.75 13.976562 -24.5625 14.84375 -24.1875 C 15.71875 -23.8125 16.472656 -23.3125 17.109375 -22.6875 C 17.753906 -22.0625 18.265625 -21.320312 18.640625 -20.46875 C 19.015625 -19.625 19.203125 -18.710938 19.203125 -17.734375 C 19.203125 -16.921875 19.070312 -16.148438 18.8125 -15.421875 C 18.5625 -14.703125 18.207031 -14.050781 17.75 -13.46875 C 17.289062 -12.882812 16.75 -12.378906 16.125 -11.953125 C 15.5 -11.523438 14.8125 -11.207031 14.0625 -11 Z M 12.078125 -14.109375 C 12.566406 -14.109375 13.03125 -14.207031 13.46875 -14.40625 C 13.914062 -14.601562 14.296875 -14.863281 14.609375 -15.1875 C 14.921875 -15.507812 15.171875 -15.894531 15.359375 -16.34375 C 15.546875 -16.800781 15.640625 -17.285156 15.640625 -17.796875 C 15.640625 -18.304688 15.546875 -18.78125 15.359375 -19.21875 C 15.171875 -19.664062 14.921875 -20.054688 14.609375 -20.390625 C 14.296875 -20.734375 13.914062 -21.003906 13.46875 -21.203125 C 13.03125 -21.398438 12.566406 -21.5 12.078125 -21.5 L 5.6875 -21.5 L 5.6875 -14.0625 Z M 12.078125 -14.109375 "/></g></g></g><g fill="#373737" fill-opacity="1"><g transform="translate(577.205017, 278.183724)"><g><path d="M 17.0625 -24.75 L 17.0625 -21.46875 L 5.578125 -21.46875 L 5.578125 -14.734375 L 15.8125 -14.734375 L 15.8125 -11.34375 L 5.578125 -11.34375 L 5.578125 -3.390625 L 17.0625 -3.390625 L 17.0625 0 L 1.953125 0 L 1.953125 -24.75 Z M 17.0625 -24.75 "/></g></g></g></svg>