<svg xmlns="http://www.w3.org/2000/svg" xmlns:xlink="http://www.w3.org/1999/xlink" width="500" zoomAndPan="magnify" viewBox="0 0 375 374.999991" height="500" preserveAspectRatio="xMidYMid meet" version="1.0"><defs><g/><clipPath id="62caa4ef8e"><path d="M 143 99.175781 L 225.292969 99.175781 L 225.292969 205.675781 L 143 205.675781 Z M 143 99.175781 " clip-rule="nonzero"/></clipPath></defs><rect x="-37.5" width="450" fill="#ffffff" y="-37.499999" height="449.999989" fill-opacity="1"/><rect x="-37.5" width="450" fill="#e6e6e6" y="-37.499999" height="449.999989" fill-opacity="1"/><g clip-path="url(#62caa4ef8e)"><path fill="#000000" d="M 157.882812 99.382812 C 165.828125 105.988281 173.777344 112.480469 181.578125 119.152344 C 183.472656 120.777344 184.640625 120.800781 186.546875 119.160156 C 194.269531 112.535156 202.152344 106.097656 210.359375 99.261719 C 211.796875 103.6875 213.1875 107.832031 214.492188 111.996094 C 217.929688 123.003906 221.304688 134.023438 224.765625 145.019531 C 225.175781 146.316406 225.28125 147.355469 224.4375 148.542969 C 211.199219 167.21875 197.988281 185.921875 184.777344 204.613281 C 184.609375 204.851562 184.433594 205.085938 184.0625 205.59375 C 180.402344 200.410156 176.894531 195.453125 173.390625 190.496094 C 163.59375 176.628906 153.820312 162.753906 143.96875 148.921875 C 143.09375 147.6875 142.789062 146.652344 143.242188 145.203125 C 147.957031 130.234375 152.628906 115.257812 157.324219 100.28125 C 157.410156 100.023438 157.621094 99.800781 157.882812 99.382812 Z M 157.882812 99.382812 " fill-opacity="1" fill-rule="evenodd"/></g><path fill="#4a4645" d="M 183.800781 186.453125 C 183.976562 186.425781 184.152344 186.394531 184.320312 186.363281 C 185.839844 180.355469 187.214844 174.300781 188.90625 168.34375 C 190.351562 163.238281 191.4375 158.226562 189.496094 153.011719 C 189.023438 151.75 188.796875 150.394531 188.488281 149.066406 C 187.089844 143.164062 185.703125 137.246094 184.308594 131.335938 C 182.195312 138.414062 180.871094 145.558594 178.949219 152.539062 C 177.59375 157.480469 177.628906 162.117188 179.03125 167.023438 C 180.871094 173.429688 182.230469 179.972656 183.800781 186.453125 Z M 183.800781 186.453125 " fill-opacity="1" fill-rule="evenodd"/><path fill="#4a4645" d="M 175.753906 153.425781 C 175.90625 153.464844 176.0625 153.511719 176.21875 153.546875 C 178.105469 145.160156 179.984375 136.769531 181.898438 128.386719 C 182.070312 127.625 181.898438 127.097656 181.335938 126.59375 C 176.304688 122.074219 171.292969 117.554688 165.8125 112.613281 C 169.226562 126.617188 172.488281 140.023438 175.753906 153.425781 Z M 175.753906 153.425781 " fill-opacity="1" fill-rule="evenodd"/><path fill="#4a4645" d="M 201.984375 113.859375 C 201.78125 113.71875 201.574219 113.585938 201.371094 113.449219 C 196.511719 117.835938 191.671875 122.226562 186.785156 126.585938 C 185.867188 127.40625 186.152344 128.234375 186.378906 129.210938 C 187.492188 134.019531 188.433594 138.867188 189.632812 143.652344 C 190.445312 146.859375 190.761719 150.21875 192.273438 153.765625 C 195.597656 140.128906 198.792969 126.988281 201.984375 113.859375 Z M 201.984375 113.859375 " fill-opacity="1" fill-rule="evenodd"/><path fill="#b2b2b2" d="M 183.800781 186.453125 C 182.230469 179.972656 180.867188 173.429688 179.027344 167.019531 C 177.625 162.117188 177.589844 157.476562 178.945312 152.535156 C 180.867188 145.558594 182.191406 138.414062 184.304688 131.335938 C 185.699219 137.246094 187.085938 143.160156 188.484375 149.066406 C 188.796875 150.386719 189.019531 151.742188 189.492188 153.011719 C 191.433594 158.222656 190.347656 163.238281 188.902344 168.34375 C 187.210938 174.300781 185.835938 180.355469 184.316406 186.359375 C 184.152344 186.394531 183.976562 186.425781 183.800781 186.453125 Z M 183.800781 186.453125 " fill-opacity="1" fill-rule="evenodd"/><path fill="#faf9fa" d="M 175.753906 153.425781 C 172.484375 140.019531 169.226562 126.617188 165.8125 112.613281 C 171.292969 117.554688 176.304688 122.074219 181.335938 126.59375 C 181.898438 127.097656 182.070312 127.625 181.898438 128.386719 C 179.984375 136.769531 178.105469 145.160156 176.21875 153.546875 C 176.0625 153.511719 175.90625 153.46875 175.753906 153.425781 Z M 175.753906 153.425781 " fill-opacity="1" fill-rule="evenodd"/><path fill="#faf9fa" d="M 201.984375 113.859375 C 198.789062 126.988281 195.597656 140.128906 192.273438 153.769531 C 190.761719 150.21875 190.445312 146.859375 189.632812 143.652344 C 188.433594 138.871094 187.492188 134.023438 186.378906 129.214844 C 186.152344 128.238281 185.867188 127.40625 186.785156 126.589844 C 191.671875 122.226562 196.511719 117.835938 201.371094 113.449219 C 201.578125 113.585938 201.78125 113.71875 201.984375 113.859375 Z M 201.984375 113.859375 " fill-opacity="1" fill-rule="evenodd"/><g fill="#000000" fill-opacity="1"><g transform="translate(94.182326, 248.525103)"><g><path d="M 5.90625 -20.40625 L 5.90625 0 L 3.0625 0 L 3.0625 -29.453125 L 18.609375 -7.328125 L 18.609375 -27.703125 L 21.46875 -27.703125 L 21.46875 1.703125 Z M 5.90625 -20.40625 "/></g></g></g><g fill="#000000" fill-opacity="1"><g transform="translate(120.083939, 248.525103)"><g><path d="M 0.8125 -25.140625 L 0.8125 -27.78125 L 17.109375 -27.78125 L 17.109375 -25.140625 L 10.390625 -25.140625 L 10.390625 -0.078125 L 7.53125 -0.078125 L 7.53125 -25.140625 Z M 0.8125 -25.140625 "/></g></g></g><g fill="#000000" fill-opacity="1"><g transform="translate(139.388065, 248.525103)"><g><path d="M 19.515625 -25.046875 L 5.90625 -25.046875 L 5.90625 -15.1875 L 19.109375 -15.1875 L 19.109375 -12.5 L 5.90625 -12.5 L 5.90625 0 L 3.0625 0 L 3.0625 -27.703125 L 19.515625 -27.703125 Z M 19.515625 -25.046875 "/></g></g></g><g fill="#000000" fill-opacity="1"><g transform="translate(161.094975, 248.525103)"><g><path d="M 17.3125 -8.96875 C 17.3125 -10.695312 16.710938 -12.21875 15.515625 -13.53125 C 14.296875 -14.832031 12.789062 -15.484375 11 -15.484375 C 9.207031 -15.484375 7.710938 -14.832031 6.515625 -13.53125 C 5.296875 -12.21875 4.6875 -10.695312 4.6875 -8.96875 C 4.6875 -7.226562 5.296875 -5.707031 6.515625 -4.40625 C 7.710938 -3.09375 9.207031 -2.4375 11 -2.4375 C 12.789062 -2.4375 14.296875 -3.09375 15.515625 -4.40625 C 16.710938 -5.707031 17.3125 -7.226562 17.3125 -8.96875 Z M 20.15625 0 L 17.3125 0 L 17.3125 -3.0625 C 17.144531 -2.84375 16.984375 -2.632812 16.828125 -2.4375 C 15.109375 -0.539062 13.015625 0.40625 10.546875 0.40625 C 8.078125 0.40625 6 -0.539062 4.3125 -2.4375 C 2.65625 -4.289062 1.828125 -6.46875 1.828125 -8.96875 C 1.828125 -11.457031 2.65625 -13.628906 4.3125 -15.484375 C 6 -17.378906 8.078125 -18.328125 10.546875 -18.328125 C 13.015625 -18.328125 15.109375 -17.378906 16.828125 -15.484375 C 16.984375 -15.285156 17.144531 -15.082031 17.3125 -14.875 L 17.3125 -17.921875 L 20.15625 -17.921875 Z M 20.15625 0 "/></g></g></g><g fill="#000000" fill-opacity="1"><g transform="translate(185.693387, 248.525103)"><g><path d="M 5.65625 -2.5625 C 6.363281 -2.070312 7.289062 -1.828125 8.4375 -1.828125 C 11.039062 -1.828125 12.34375 -2.804688 12.34375 -4.765625 C 12.34375 -5.910156 11.40625 -6.78125 9.53125 -7.375 C 8.738281 -7.644531 7.894531 -7.890625 7 -8.109375 C 6.082031 -8.328125 5.226562 -8.613281 4.4375 -8.96875 C 3.519531 -9.394531 2.828125 -9.9375 2.359375 -10.59375 C 1.898438 -11.238281 1.671875 -12.007812 1.671875 -12.90625 C 1.671875 -14.695312 2.296875 -16.046875 3.546875 -16.953125 C 4.796875 -17.867188 6.289062 -18.328125 8.03125 -18.328125 C 9.757812 -18.328125 11.195312 -17.972656 12.34375 -17.265625 C 13.476562 -16.566406 14.253906 -15.304688 14.671875 -13.484375 L 11.609375 -13.484375 C 11.285156 -14.484375 10.8125 -15.148438 10.1875 -15.484375 C 9.582031 -15.804688 8.832031 -15.96875 7.9375 -15.96875 C 7.039062 -15.96875 6.28125 -15.773438 5.65625 -15.390625 C 5.007812 -14.984375 4.6875 -14.390625 4.6875 -13.609375 C 4.6875 -12.796875 4.957031 -12.195312 5.5 -11.8125 C 6.007812 -11.457031 6.660156 -11.144531 7.453125 -10.875 C 8.242188 -10.632812 9.097656 -10.414062 10.015625 -10.21875 C 10.910156 -10 11.769531 -9.703125 12.59375 -9.328125 C 14.4375 -8.460938 15.359375 -7.0625 15.359375 -5.125 C 15.359375 -3.195312 14.664062 -1.773438 13.28125 -0.859375 C 12.570312 -0.390625 11.796875 -0.0351562 10.953125 0.203125 C 10.140625 0.421875 9.242188 0.53125 8.265625 0.53125 C 4.109375 0.53125 1.71875 -1.316406 1.09375 -5.015625 L 4.109375 -5.015625 C 4.410156 -3.847656 4.925781 -3.03125 5.65625 -2.5625 Z M 5.65625 -2.5625 "/></g></g></g><g fill="#000000" fill-opacity="1"><g transform="translate(203.449947, 248.525103)"><g><path d="M 5.90625 0 L 3.0625 0 L 3.0625 -30.546875 L 5.90625 -30.546875 L 5.90625 -14.828125 C 6.5 -15.828125 7.257812 -16.65625 8.1875 -17.3125 C 9.164062 -17.96875 10.289062 -18.296875 11.5625 -18.296875 C 12.84375 -18.296875 13.878906 -18.117188 14.671875 -17.765625 C 15.453125 -17.378906 16.113281 -16.875 16.65625 -16.25 C 17.75 -14.976562 18.296875 -13.296875 18.296875 -11.203125 L 18.296875 0 L 15.4375 0 L 15.4375 -11.203125 C 15.4375 -12.367188 15.179688 -13.375 14.671875 -14.21875 C 14.117188 -15.03125 13.234375 -15.4375 12.015625 -15.4375 C 10.796875 -15.4375 9.804688 -15.25 9.046875 -14.875 C 8.285156 -14.457031 7.671875 -13.898438 7.203125 -13.203125 C 6.335938 -11.898438 5.90625 -10 5.90625 -7.5 Z M 5.90625 0 "/></g></g></g><g fill="#000000" fill-opacity="1"><g transform="translate(225.564109, 248.525103)"><g><path d="M 5.953125 -24.109375 C 6.304688 -23.753906 6.484375 -23.335938 6.484375 -22.859375 C 6.484375 -22.335938 6.304688 -21.898438 5.953125 -21.546875 C 5.597656 -21.191406 5.175781 -21.015625 4.6875 -21.015625 C 4.164062 -21.015625 3.726562 -21.191406 3.375 -21.546875 C 3.019531 -21.898438 2.84375 -22.335938 2.84375 -22.859375 C 2.84375 -23.335938 3.019531 -23.753906 3.375 -24.109375 C 3.726562 -24.460938 4.164062 -24.640625 4.6875 -24.640625 C 5.175781 -24.640625 5.597656 -24.460938 5.953125 -24.109375 Z M 6.109375 0 L 3.265625 0 L 3.265625 -17.921875 L 6.109375 -17.921875 Z M 6.109375 0 "/></g></g></g><g fill="#000000" fill-opacity="1"><g transform="translate(236.275198, 248.525103)"><g><path d="M 17.71875 -9.046875 C 17.71875 -10.835938 17.082031 -12.367188 15.8125 -13.640625 C 14.53125 -14.921875 12.992188 -15.5625 11.203125 -15.5625 C 9.410156 -15.5625 7.875 -14.921875 6.59375 -13.640625 C 5.320312 -12.367188 4.6875 -10.835938 4.6875 -9.046875 C 4.6875 -7.273438 5.320312 -5.753906 6.59375 -4.484375 C 7.875 -3.203125 9.410156 -2.5625 11.203125 -2.5625 C 12.992188 -2.5625 14.53125 -3.203125 15.8125 -4.484375 C 17.082031 -5.753906 17.71875 -7.273438 17.71875 -9.046875 Z M 20.578125 -9.046875 C 20.578125 -6.429688 19.664062 -4.226562 17.84375 -2.4375 C 15.96875 -0.625 13.753906 0.28125 11.203125 0.28125 C 8.648438 0.28125 6.453125 -0.625 4.609375 -2.4375 C 2.753906 -4.226562 1.828125 -6.429688 1.828125 -9.046875 C 1.828125 -11.617188 2.753906 -13.832031 4.609375 -15.6875 C 6.421875 -17.5 8.617188 -18.40625 11.203125 -18.40625 C 13.785156 -18.40625 16 -17.5 17.84375 -15.6875 C 19.664062 -13.832031 20.578125 -11.617188 20.578125 -9.046875 Z M 20.578125 -9.046875 "/></g></g></g><g fill="#000000" fill-opacity="1"><g transform="translate(260.059108, 248.525103)"><g><path d="M 15.4375 0 L 15.4375 -11.203125 C 15.4375 -12.367188 15.179688 -13.375 14.671875 -14.21875 C 14.117188 -15.03125 13.234375 -15.4375 12.015625 -15.4375 C 10.796875 -15.4375 9.804688 -15.207031 9.046875 -14.75 C 8.285156 -14.28125 7.671875 -13.679688 7.203125 -12.953125 C 6.335938 -11.597656 5.90625 -9.78125 5.90625 -7.5 L 5.90625 0 L 3.0625 0 L 3.0625 -17.921875 L 5.90625 -17.921875 L 5.90625 -14.828125 C 6.5 -15.828125 7.257812 -16.65625 8.1875 -17.3125 C 9.164062 -17.96875 10.289062 -18.296875 11.5625 -18.296875 C 12.84375 -18.296875 13.878906 -18.117188 14.671875 -17.765625 C 15.453125 -17.378906 16.113281 -16.875 16.65625 -16.25 C 17.75 -14.976562 18.296875 -13.296875 18.296875 -11.203125 L 18.296875 0 Z M 15.4375 0 "/></g></g></g></svg>